<svg xmlns="http://www.w3.org/2000/svg" class="hide">
    <defs>
        <g id="svg-time">
            <path  d="M12,24C5.382,24,0,18.618,0,12
		C0,5.384,5.382,0,12,0s12,5.384,12,12C24,18.618,18.618,24,12,24 M12,1.846C6.4,1.846,1.845,6.402,1.845,12
		C1.845,17.6,6.4,22.153,12,22.153c5.6,0,10.155-4.554,10.155-10.154C22.155,6.402,17.6,1.846,12,1.846"/>
            <path  d="M11.99,12.973h-0.002
		c-0.51,0-0.922-0.414-0.922-0.926l0.01-6.51C11.078,5.028,11.491,4.616,12,4.616h0.002c0.51,0.001,0.922,0.415,0.922,0.924
		l-0.01,6.511C12.912,12.561,12.501,12.973,11.99,12.973"/>
            <path  d="M15.647,15.683
		c-0.188,0-0.38-0.059-0.546-0.179l-3.643-2.687c-0.41-0.304-0.498-0.882-0.195-1.292c0.303-0.412,0.878-0.499,1.29-0.196
		l3.644,2.687c0.409,0.304,0.499,0.882,0.195,1.291C16.21,15.554,15.931,15.683,15.647,15.683"/>
        </g>
        <g id="svg-view">
            <path   d="M12,7.086c-2.484,0-4.496,2.055-4.496,4.589
		c0,2.535,2.012,4.589,4.496,4.589c2.482,0,4.496-2.055,4.496-4.589C16.496,9.142,14.482,7.086,12,7.086 M12,14.715
		c-1.644,0-2.979-1.362-2.979-3.04c0-1.678,1.335-3.038,2.979-3.038c1.643,0,2.979,1.36,2.979,3.038
		C14.979,13.353,13.643,14.715,12,14.715"/>
            <path   d="M12,2.505c-6.076,0-10.514,4.097-12,9.17
		c1.478,5.033,5.924,9.17,12,9.17c6.074,0,10.508-4.105,12-9.17C22.532,6.625,18.074,2.505,12,2.505 M11.994,19.337
		c-5.217,0-9.225-3.451-10.494-7.654c1.277-4.232,5.277-7.652,10.494-7.652c5.218,0,9.232,3.438,10.494,7.652
		C21.208,15.908,17.211,19.337,11.994,19.337"/>
        </g>
        <g id="svg-video">
            <path  d="M82.62,26.262c-2.166-5.121-5.266-9.719-9.214-13.668
		c-3.949-3.948-8.547-7.048-13.667-9.214C54.436,1.137,48.804,0,43,0S31.565,1.137,26.262,3.38
		c-5.121,2.166-9.72,5.266-13.668,9.214c-3.948,3.949-7.048,8.547-9.214,13.668C1.137,31.565,0,37.196,0,43
		c0,5.804,1.137,11.435,3.38,16.739c2.166,5.12,5.266,9.719,9.214,13.667c3.948,3.947,8.547,7.048,13.668,9.214
		C31.565,84.863,37.196,86,43,86s11.436-1.137,16.738-3.38c5.121-2.166,9.719-5.267,13.668-9.214
		c3.948-3.948,7.048-8.547,9.214-13.667C84.863,54.435,86,48.804,86,43C86,37.196,84.863,31.565,82.62,26.262 M43,80.224
		C22.475,80.224,5.776,63.525,5.776,43C5.776,22.475,22.475,5.776,43,5.776c20.525,0,37.224,16.699,37.224,37.224
		C80.224,63.525,63.525,80.224,43,80.224"/>
            <path  d="M61.75,40.618L34.336,24.791
		c-0.851-0.491-1.899-0.491-2.75,0c-0.851,0.492-1.375,1.4-1.375,2.382v31.655c0,0.982,0.524,1.892,1.375,2.383
		c0.425,0.244,0.9,0.367,1.375,0.367c0.475,0,0.95-0.123,1.375-0.367L61.75,45.382c0.851-0.491,1.375-1.399,1.375-2.382
		S62.601,41.108,61.75,40.618"/>
        </g>
        <g id="svg-comment">
            <path d="M8.089,18.798c0,0.802,0.331,1.599,0.898,2.166
		c0.567,0.568,1.363,0.897,2.165,0.897c0.802,0,1.599-0.329,2.166-0.897c0.567-0.567,0.896-1.364,0.896-2.166
		c0-0.802-0.329-1.599-0.896-2.166c-0.567-0.567-1.364-0.897-2.166-0.897c-0.802,0-1.598,0.33-2.165,0.897
		C8.42,17.199,8.089,17.996,8.089,18.798"/>
            <path d="M17.939,18.798c0,0.802,0.331,1.599,0.896,2.166
		c0.568,0.568,1.365,0.897,2.167,0.897s1.599-0.329,2.166-0.897c0.567-0.567,0.896-1.364,0.896-2.166
		c0-0.802-0.329-1.599-0.896-2.166s-1.364-0.897-2.166-0.897s-1.599,0.33-2.167,0.897C18.27,17.199,17.939,17.996,17.939,18.798"/>
            <path d="M27.783,18.798c0,0.802,0.331,1.599,0.898,2.166
		c0.566,0.568,1.364,0.897,2.165,0.897c0.802,0,1.599-0.329,2.166-0.897c0.566-0.567,0.896-1.364,0.896-2.166
		c0-0.802-0.329-1.599-0.896-2.166c-0.567-0.567-1.364-0.897-2.166-0.897c-0.801,0-1.599,0.33-2.165,0.897
		C28.114,17.199,27.783,17.996,27.783,18.798"/>
            <path d="M21.002,2.391C9.402,2.391,0,9.737,0,18.798c0,4.989,2.849,9.453,7.337,12.461
		l1.611,8.664c0.017,0.096,0.048,0.188,0.083,0.275v0.003c0.008,0.02,0.017,0.036,0.025,0.059c0,0.004,0.005,0.004,0.005,0.009
		c0.009,0.017,0.018,0.034,0.026,0.048c0,0.003,0.005,0.009,0.009,0.012c0.01,0.015,0.019,0.031,0.027,0.045
		c0.004,0.006,0.009,0.014,0.009,0.018c0.008,0.013,0.017,0.024,0.022,0.034c0.003,0.005,0.003,0.01,0.009,0.01
		c0.003,0.004,0.003,0.009,0.008,0.012c0.004,0.009,0.012,0.015,0.017,0.023c0.009,0.013,0.017,0.024,0.031,0.039l0.005,0.005
		c0.136,0.166,0.305,0.293,0.494,0.375c0.005,0,0.008,0.006,0.014,0.006c0.012,0.003,0.025,0.008,0.039,0.017
		c0.187,0.073,0.398,0.104,0.607,0.079h0.013c0.014,0,0.026-0.006,0.04-0.006s0.022-0.003,0.036-0.003h0.012h0.008l0.054-0.014
		h0.003c0.154-0.034,0.307-0.102,0.442-0.197l8.108-5.626c0.626,0.044,1.265,0.065,1.905,0.065C32.598,35.211,42,27.864,42,18.803
		C42.005,9.737,32.601,2.391,21.002,2.391 M34.232,28.332c-1.688,1.321-3.671,2.363-5.884,3.095
		c-2.324,0.766-4.795,1.154-7.35,1.154c-0.715,0-1.423-0.03-2.124-0.093c-0.305-0.034-0.625,0.036-0.896,0.226l-6.822,4.732
		l-1.343-7.224c-0.07-0.385-0.307-0.695-0.617-0.884c-0.499-0.314-0.975-0.651-1.435-1.007c-1.642-1.281-2.923-2.761-3.806-4.397
		c-0.884-1.637-1.335-3.364-1.335-5.136s0.451-3.501,1.335-5.137c0.883-1.636,2.164-3.115,3.806-4.397
		c1.689-1.322,3.672-2.363,5.886-3.094c2.322-0.765,4.795-1.155,7.351-1.155c2.555,0,5.026,0.39,7.35,1.155
		c2.213,0.731,4.191,1.772,5.884,3.094c1.643,1.282,2.924,2.761,3.807,4.397c0.885,1.636,1.336,3.365,1.336,5.137
		s-0.451,3.5-1.336,5.136C37.16,25.568,35.878,27.051,34.232,28.332"/>
        </g>
        <g id="svg-collect">
            <path d="M8.892,37.303l1.71-9.967
		c0.1-0.585-0.094-1.181-0.518-1.595l-7.242-7.059c-1.069-1.042-0.479-2.858,0.998-3.073l10.008-1.454
		c0.587-0.085,1.094-0.454,1.357-0.985l4.475-9.069c0.661-1.339,2.571-1.339,3.231,0l4.476,9.069c0.264,0.531,0.771,0.9,1.357,0.985
		l10.008,1.454c1.478,0.215,2.067,2.031,0.998,3.073l-7.242,7.059c-0.424,0.414-0.617,1.01-0.518,1.595l1.71,9.967
		c0.252,1.473-1.293,2.595-2.614,1.899l-8.952-4.706c-0.524-0.276-1.151-0.276-1.676,0l-8.952,4.706
		C10.185,39.897,8.64,38.775,8.892,37.303 M22.046,31.4l7.922,4.165c0.395,0.207,0.855-0.128,0.78-0.566l-1.513-8.822
		c-0.09-0.522,0.083-1.056,0.463-1.427l6.409-6.247c0.318-0.311,0.143-0.852-0.298-0.916L26.952,16.3
		c-0.525-0.077-0.978-0.406-1.213-0.882l-3.961-8.026c-0.197-0.399-0.768-0.399-0.964,0l-3.961,8.026
		c-0.235,0.476-0.689,0.805-1.213,0.882l-8.858,1.287c-0.44,0.064-0.616,0.605-0.297,0.916l6.409,6.247
		c0.38,0.371,0.553,0.904,0.463,1.427l-1.513,8.821c-0.075,0.439,0.386,0.774,0.78,0.567l7.922-4.165
		C21.016,31.153,21.576,31.153,22.046,31.4"/>
        </g>
        <g id="svg-back-to">
            <path d="M6.192,17c0-0.435,0.173-0.852,0.48-1.159L22.033,0.479
		c0.642-0.639,1.679-0.639,2.318,0c0.639,0.64,0.639,1.678,0,2.318L10.148,17l14.203,14.203c0.639,0.639,0.639,1.677,0,2.317
		c-0.64,0.64-1.677,0.64-2.318,0L6.672,18.158C6.366,17.852,6.192,17.435,6.192,17"/>
        </g>
        <g id="svg-share">
            <path d="M23.979,25.757c-0.692,0-1.346,0.174-1.919,0.477l-8.471-6.28
		c0.112-0.412,0.179-0.845,0.179-1.293c0-0.688-0.143-1.342-0.397-1.937l8.989-8.812c0.678,0.291,1.447,0.405,2.258,0.283
		c1.655-0.249,3.049-1.549,3.39-3.188c0.589-2.834-1.732-5.305-4.527-4.977c-1.549,0.182-2.881,1.305-3.396,2.777
		c-0.301,0.86-0.278,1.671-0.076,2.408l-9.141,8.961c-0.974-0.439-2.11-0.583-3.304-0.272c-1.747,0.455-3.147,1.903-3.526,3.668
		c-0.684,3.193,1.732,6.011,4.806,6.011c0.964,0,1.859-0.28,2.619-0.759l8.469,6.279c-0.172,0.924-0.085,1.939,0.68,3.049
		c0.671,0.972,1.722,1.692,2.896,1.822c2.487,0.276,4.593-1.663,4.593-4.096C28.101,27.604,26.256,25.757,23.979,25.757"/>
        </g>
    </defs>
</svg>